<mxfile host="app.diagrams.net" modified="2023-05-26T00:13:36.101Z" agent="Mozilla/5.0 (Windows NT 10.0; Win64; x64) AppleWebKit/537.36 (KHTML, like Gecko) Chrome/112.0.0.0 Safari/537.36 OPR/98.0.0.0 (Edition std-1)" etag="FG1DObbMkk2AoVI1qNK1" version="21.3.4" type="onedrive">
  <diagram name="Página-1" id="IfOQsipvO4H1h4sd-kLO">
    <mxGraphModel grid="1" page="1" gridSize="10" guides="1" tooltips="1" connect="1" arrows="1" fold="1" pageScale="1" pageWidth="827" pageHeight="1169" math="0" shadow="0">
      <root>
        <mxCell id="0" />
        <mxCell id="1" parent="0" />
        <mxCell id="eFu3dwpj61SiQRmt1m__-1" style="edgeStyle=orthogonalEdgeStyle;rounded=0;orthogonalLoop=1;jettySize=auto;html=1;entryX=0.5;entryY=0;entryDx=0;entryDy=0;" edge="1" parent="1" source="eFu3dwpj61SiQRmt1m__-2" target="eFu3dwpj61SiQRmt1m__-4">
          <mxGeometry relative="1" as="geometry" />
        </mxCell>
        <mxCell id="eFu3dwpj61SiQRmt1m__-2" value="Início" style="ellipse;whiteSpace=wrap;html=1;" vertex="1" parent="1">
          <mxGeometry x="340" y="280" width="120" height="80" as="geometry" />
        </mxCell>
        <mxCell id="eFu3dwpj61SiQRmt1m__-15" style="edgeStyle=orthogonalEdgeStyle;rounded=0;orthogonalLoop=1;jettySize=auto;html=1;entryX=0.5;entryY=0;entryDx=0;entryDy=0;" edge="1" parent="1" source="eFu3dwpj61SiQRmt1m__-4" target="eFu3dwpj61SiQRmt1m__-13">
          <mxGeometry relative="1" as="geometry" />
        </mxCell>
        <mxCell id="eFu3dwpj61SiQRmt1m__-4" value="&lt;div&gt;salario,&amp;nbsp;&lt;span style=&quot;background-color: initial;&quot;&gt;gasto_mensal,&amp;nbsp;&lt;/span&gt;&lt;span style=&quot;background-color: initial;&quot;&gt;resul&lt;/span&gt;&lt;/div&gt;" style="shape=parallelogram;perimeter=parallelogramPerimeter;whiteSpace=wrap;html=1;fixedSize=1;" vertex="1" parent="1">
          <mxGeometry x="300" y="420" width="200" height="60" as="geometry" />
        </mxCell>
        <mxCell id="eFu3dwpj61SiQRmt1m__-5" style="edgeStyle=orthogonalEdgeStyle;rounded=0;orthogonalLoop=1;jettySize=auto;html=1;entryX=0.5;entryY=0;entryDx=0;entryDy=0;" edge="1" parent="1" source="eFu3dwpj61SiQRmt1m__-7" target="eFu3dwpj61SiQRmt1m__-11">
          <mxGeometry relative="1" as="geometry" />
        </mxCell>
        <mxCell id="eFu3dwpj61SiQRmt1m__-6" style="edgeStyle=orthogonalEdgeStyle;rounded=0;orthogonalLoop=1;jettySize=auto;html=1;entryX=0.5;entryY=0;entryDx=0;entryDy=0;" edge="1" parent="1" source="eFu3dwpj61SiQRmt1m__-7" target="eFu3dwpj61SiQRmt1m__-9">
          <mxGeometry relative="1" as="geometry" />
        </mxCell>
        <mxCell id="eFu3dwpj61SiQRmt1m__-7" value="(salario&amp;gt;gasto_mensal)" style="rhombus;whiteSpace=wrap;html=1;" vertex="1" parent="1">
          <mxGeometry x="310" y="640" width="180" height="80" as="geometry" />
        </mxCell>
        <mxCell id="eFu3dwpj61SiQRmt1m__-8" style="edgeStyle=orthogonalEdgeStyle;rounded=0;orthogonalLoop=1;jettySize=auto;html=1;" edge="1" parent="1" source="eFu3dwpj61SiQRmt1m__-9" target="eFu3dwpj61SiQRmt1m__-12">
          <mxGeometry relative="1" as="geometry" />
        </mxCell>
        <mxCell id="eFu3dwpj61SiQRmt1m__-9" value="&lt;div&gt;&lt;font style=&quot;font-size: 10px;&quot;&gt;(&quot;Sua conta está com saldo positivo&quot;,&quot;Seu saldo é de:&quot;, resul)&lt;/font&gt;&lt;/div&gt;" style="shape=document;whiteSpace=wrap;html=1;boundedLbl=1;" vertex="1" parent="1">
          <mxGeometry x="140" y="710" width="160" height="80" as="geometry" />
        </mxCell>
        <mxCell id="eFu3dwpj61SiQRmt1m__-10" style="edgeStyle=orthogonalEdgeStyle;rounded=0;orthogonalLoop=1;jettySize=auto;html=1;" edge="1" parent="1" source="eFu3dwpj61SiQRmt1m__-11" target="eFu3dwpj61SiQRmt1m__-12">
          <mxGeometry relative="1" as="geometry" />
        </mxCell>
        <mxCell id="eFu3dwpj61SiQRmt1m__-11" value="&lt;font style=&quot;font-size: 10px;&quot;&gt;(&quot;Sua conta está com saldo negativo&quot;,&quot;Seu saldo é de:&quot;,resul)&lt;/font&gt;" style="shape=document;whiteSpace=wrap;html=1;boundedLbl=1;" vertex="1" parent="1">
          <mxGeometry x="500" y="710" width="170" height="80" as="geometry" />
        </mxCell>
        <mxCell id="eFu3dwpj61SiQRmt1m__-12" value="Fim" style="ellipse;whiteSpace=wrap;html=1;" vertex="1" parent="1">
          <mxGeometry x="340" y="840" width="120" height="80" as="geometry" />
        </mxCell>
        <mxCell id="eFu3dwpj61SiQRmt1m__-16" style="edgeStyle=orthogonalEdgeStyle;rounded=0;orthogonalLoop=1;jettySize=auto;html=1;entryX=0.5;entryY=0;entryDx=0;entryDy=0;" edge="1" parent="1" source="eFu3dwpj61SiQRmt1m__-13" target="eFu3dwpj61SiQRmt1m__-7">
          <mxGeometry relative="1" as="geometry" />
        </mxCell>
        <mxCell id="eFu3dwpj61SiQRmt1m__-13" value="resul &amp;lt;- (salario - gasto_mensal)" style="shape=document;whiteSpace=wrap;html=1;boundedLbl=1;" vertex="1" parent="1">
          <mxGeometry x="300" y="520" width="200" height="80" as="geometry" />
        </mxCell>
      </root>
    </mxGraphModel>
  </diagram>
</mxfile>
